<?xml version="1.0" encoding="UTF-8"?>
<svg width="16" height="20" version="1.1" viewBox="0 0 16 20" xml:space="preserve" xmlns="http://www.w3.org/2000/svg">
<g transform="matrix(.079588 0 0 .080728 -1.8587 0)" fill="#000002" stroke-width="12.476">
	<path d="m206.89 0h-132.07c-9.649 0-17.5 7.851-17.5 17.5v21.005h-16.47c-9.649 0-17.5 7.85-17.5 17.5v174.24c0 9.649 7.851 17.5 17.5 17.5h132.06c9.649 0 17.5-7.851 17.5-17.5v-21.004h16.471c9.649 0 17.5-7.851 17.5-17.5v-174.24c0-9.649-7.85-17.5-17.5-17.5zm-31.471 230.24c0 1.355-1.145 2.5-2.5 2.5h-132.06c-1.355 0-2.5-1.145-2.5-2.5v-174.24c0-1.356 1.145-2.5 2.5-2.5h132.06c1.355 0 2.5 1.144 2.5 2.5zm33.971-38.504c0 1.355-1.145 2.5-2.5 2.5h-16.471v-138.24c0-9.65-7.851-17.5-17.5-17.5h-100.6v-21.005c0-1.355 1.144-2.5 2.5-2.5h132.07c1.355 0 2.5 1.145 2.5 2.5z"/>
	<path d="m149.55 77.121h-85.333c-4.143 0-7.5 3.357-7.5 7.5s3.357 7.5 7.5 7.5h85.333c4.143 0 7.5-3.357 7.5-7.5 0-4.142-3.357-7.5-7.5-7.5z"/>
	<path d="m149.55 110.9h-85.333c-4.143 0-7.5 3.357-7.5 7.5s3.357 7.5 7.5 7.5h85.333c4.143 0 7.5-3.357 7.5-7.5s-3.357-7.5-7.5-7.5z"/>
	<path d="m149.55 144.68h-85.333c-4.143 0-7.5 3.357-7.5 7.5s3.357 7.5 7.5 7.5h85.333c4.143 0 7.5-3.357 7.5-7.5s-3.357-7.5-7.5-7.5z"/>
	<path d="m149.55 178.45h-85.333c-4.143 0-7.5 3.357-7.5 7.5s3.357 7.5 7.5 7.5h85.333c4.143 0 7.5-3.357 7.5-7.5 0-4.142-3.357-7.5-7.5-7.5z"/>
</g>
</svg>
